<?xml version="1.0" encoding="utf-8" standalone="no"?>
<!DOCTYPE svg PUBLIC "-//W3C//DTD SVG 1.1//EN"
  "http://www.w3.org/Graphics/SVG/1.1/DTD/svg11.dtd">
<!-- Created with matplotlib (https://matplotlib.org/) -->
<svg height="288pt" version="1.1" viewBox="0 0 864 288" width="864pt" xmlns="http://www.w3.org/2000/svg" xmlns:xlink="http://www.w3.org/1999/xlink">
 <defs>
  <style type="text/css">
*{stroke-linecap:butt;stroke-linejoin:round;}
  </style>
 </defs>
 <g id="figure_1">
  <g id="patch_1">
   <path d="M 0 288 
L 864 288 
L 864 0 
L 0 0 
z
" style="fill:#ffffff;"/>
  </g>
  <g id="axes_1">
   <g id="patch_2">
    <path d="M 57.05 246.2 
L 428.843285 246.2 
L 428.843285 26.8 
L 57.05 26.8 
z
" style="fill:#ffffff;"/>
   </g>
   <g id="matplotlib.axis_1">
    <g id="xtick_1">
     <g id="line2d_1">
      <defs>
       <path d="M 0 0 
L 0 3.5 
" id="m4eba06fd7d" style="stroke:#000000;stroke-width:0.8;"/>
      </defs>
      <g>
       <use style="stroke:#000000;stroke-width:0.8;" x="73.949695" xlink:href="#m4eba06fd7d" y="246.2"/>
      </g>
     </g>
     <g id="text_1">
      <!-- 0 -->
      <defs>
       <path d="M 31.78125 66.40625 
Q 24.171875 66.40625 20.328125 58.90625 
Q 16.5 51.421875 16.5 36.375 
Q 16.5 21.390625 20.328125 13.890625 
Q 24.171875 6.390625 31.78125 6.390625 
Q 39.453125 6.390625 43.28125 13.890625 
Q 47.125 21.390625 47.125 36.375 
Q 47.125 51.421875 43.28125 58.90625 
Q 39.453125 66.40625 31.78125 66.40625 
z
M 31.78125 74.21875 
Q 44.046875 74.21875 50.515625 64.515625 
Q 56.984375 54.828125 56.984375 36.375 
Q 56.984375 17.96875 50.515625 8.265625 
Q 44.046875 -1.421875 31.78125 -1.421875 
Q 19.53125 -1.421875 13.0625 8.265625 
Q 6.59375 17.96875 6.59375 36.375 
Q 6.59375 54.828125 13.0625 64.515625 
Q 19.53125 74.21875 31.78125 74.21875 
z
" id="DejaVuSans-48"/>
      </defs>
      <g transform="translate(70.768445 260.798437)scale(0.1 -0.1)">
       <use xlink:href="#DejaVuSans-48"/>
      </g>
     </g>
    </g>
    <g id="xtick_2">
     <g id="line2d_2">
      <g>
       <use style="stroke:#000000;stroke-width:0.8;" x="144.36509" xlink:href="#m4eba06fd7d" y="246.2"/>
      </g>
     </g>
     <g id="text_2">
      <!-- 5 -->
      <defs>
       <path d="M 10.796875 72.90625 
L 49.515625 72.90625 
L 49.515625 64.59375 
L 19.828125 64.59375 
L 19.828125 46.734375 
Q 21.96875 47.46875 24.109375 47.828125 
Q 26.265625 48.1875 28.421875 48.1875 
Q 40.625 48.1875 47.75 41.5 
Q 54.890625 34.8125 54.890625 23.390625 
Q 54.890625 11.625 47.5625 5.09375 
Q 40.234375 -1.421875 26.90625 -1.421875 
Q 22.3125 -1.421875 17.546875 -0.640625 
Q 12.796875 0.140625 7.71875 1.703125 
L 7.71875 11.625 
Q 12.109375 9.234375 16.796875 8.0625 
Q 21.484375 6.890625 26.703125 6.890625 
Q 35.15625 6.890625 40.078125 11.328125 
Q 45.015625 15.765625 45.015625 23.390625 
Q 45.015625 31 40.078125 35.4375 
Q 35.15625 39.890625 26.703125 39.890625 
Q 22.75 39.890625 18.8125 39.015625 
Q 14.890625 38.140625 10.796875 36.28125 
z
" id="DejaVuSans-53"/>
      </defs>
      <g transform="translate(141.18384 260.798437)scale(0.1 -0.1)">
       <use xlink:href="#DejaVuSans-53"/>
      </g>
     </g>
    </g>
    <g id="xtick_3">
     <g id="line2d_3">
      <g>
       <use style="stroke:#000000;stroke-width:0.8;" x="214.780485" xlink:href="#m4eba06fd7d" y="246.2"/>
      </g>
     </g>
     <g id="text_3">
      <!-- 10 -->
      <defs>
       <path d="M 12.40625 8.296875 
L 28.515625 8.296875 
L 28.515625 63.921875 
L 10.984375 60.40625 
L 10.984375 69.390625 
L 28.421875 72.90625 
L 38.28125 72.90625 
L 38.28125 8.296875 
L 54.390625 8.296875 
L 54.390625 0 
L 12.40625 0 
z
" id="DejaVuSans-49"/>
      </defs>
      <g transform="translate(208.417985 260.798437)scale(0.1 -0.1)">
       <use xlink:href="#DejaVuSans-49"/>
       <use x="63.623047" xlink:href="#DejaVuSans-48"/>
      </g>
     </g>
    </g>
    <g id="xtick_4">
     <g id="line2d_4">
      <g>
       <use style="stroke:#000000;stroke-width:0.8;" x="285.19588" xlink:href="#m4eba06fd7d" y="246.2"/>
      </g>
     </g>
     <g id="text_4">
      <!-- 15 -->
      <g transform="translate(278.83338 260.798437)scale(0.1 -0.1)">
       <use xlink:href="#DejaVuSans-49"/>
       <use x="63.623047" xlink:href="#DejaVuSans-53"/>
      </g>
     </g>
    </g>
    <g id="xtick_5">
     <g id="line2d_5">
      <g>
       <use style="stroke:#000000;stroke-width:0.8;" x="355.611274" xlink:href="#m4eba06fd7d" y="246.2"/>
      </g>
     </g>
     <g id="text_5">
      <!-- 20 -->
      <defs>
       <path d="M 19.1875 8.296875 
L 53.609375 8.296875 
L 53.609375 0 
L 7.328125 0 
L 7.328125 8.296875 
Q 12.9375 14.109375 22.625 23.890625 
Q 32.328125 33.6875 34.8125 36.53125 
Q 39.546875 41.84375 41.421875 45.53125 
Q 43.3125 49.21875 43.3125 52.78125 
Q 43.3125 58.59375 39.234375 62.25 
Q 35.15625 65.921875 28.609375 65.921875 
Q 23.96875 65.921875 18.8125 64.3125 
Q 13.671875 62.703125 7.8125 59.421875 
L 7.8125 69.390625 
Q 13.765625 71.78125 18.9375 73 
Q 24.125 74.21875 28.421875 74.21875 
Q 39.75 74.21875 46.484375 68.546875 
Q 53.21875 62.890625 53.21875 53.421875 
Q 53.21875 48.921875 51.53125 44.890625 
Q 49.859375 40.875 45.40625 35.40625 
Q 44.1875 33.984375 37.640625 27.21875 
Q 31.109375 20.453125 19.1875 8.296875 
z
" id="DejaVuSans-50"/>
      </defs>
      <g transform="translate(349.248774 260.798437)scale(0.1 -0.1)">
       <use xlink:href="#DejaVuSans-50"/>
       <use x="63.623047" xlink:href="#DejaVuSans-48"/>
      </g>
     </g>
    </g>
    <g id="xtick_6">
     <g id="line2d_6">
      <g>
       <use style="stroke:#000000;stroke-width:0.8;" x="426.026669" xlink:href="#m4eba06fd7d" y="246.2"/>
      </g>
     </g>
     <g id="text_6">
      <!-- 25 -->
      <g transform="translate(419.664169 260.798437)scale(0.1 -0.1)">
       <use xlink:href="#DejaVuSans-50"/>
       <use x="63.623047" xlink:href="#DejaVuSans-53"/>
      </g>
     </g>
    </g>
    <g id="text_7">
     <!-- epoch -->
     <defs>
      <path d="M 56.203125 29.59375 
L 56.203125 25.203125 
L 14.890625 25.203125 
Q 15.484375 15.921875 20.484375 11.0625 
Q 25.484375 6.203125 34.421875 6.203125 
Q 39.59375 6.203125 44.453125 7.46875 
Q 49.3125 8.734375 54.109375 11.28125 
L 54.109375 2.78125 
Q 49.265625 0.734375 44.1875 -0.34375 
Q 39.109375 -1.421875 33.890625 -1.421875 
Q 20.796875 -1.421875 13.15625 6.1875 
Q 5.515625 13.8125 5.515625 26.8125 
Q 5.515625 40.234375 12.765625 48.109375 
Q 20.015625 56 32.328125 56 
Q 43.359375 56 49.78125 48.890625 
Q 56.203125 41.796875 56.203125 29.59375 
z
M 47.21875 32.234375 
Q 47.125 39.59375 43.09375 43.984375 
Q 39.0625 48.390625 32.421875 48.390625 
Q 24.90625 48.390625 20.390625 44.140625 
Q 15.875 39.890625 15.1875 32.171875 
z
" id="DejaVuSans-101"/>
      <path d="M 18.109375 8.203125 
L 18.109375 -20.796875 
L 9.078125 -20.796875 
L 9.078125 54.6875 
L 18.109375 54.6875 
L 18.109375 46.390625 
Q 20.953125 51.265625 25.265625 53.625 
Q 29.59375 56 35.59375 56 
Q 45.5625 56 51.78125 48.09375 
Q 58.015625 40.1875 58.015625 27.296875 
Q 58.015625 14.40625 51.78125 6.484375 
Q 45.5625 -1.421875 35.59375 -1.421875 
Q 29.59375 -1.421875 25.265625 0.953125 
Q 20.953125 3.328125 18.109375 8.203125 
z
M 48.6875 27.296875 
Q 48.6875 37.203125 44.609375 42.84375 
Q 40.53125 48.484375 33.40625 48.484375 
Q 26.265625 48.484375 22.1875 42.84375 
Q 18.109375 37.203125 18.109375 27.296875 
Q 18.109375 17.390625 22.1875 11.75 
Q 26.265625 6.109375 33.40625 6.109375 
Q 40.53125 6.109375 44.609375 11.75 
Q 48.6875 17.390625 48.6875 27.296875 
z
" id="DejaVuSans-112"/>
      <path d="M 30.609375 48.390625 
Q 23.390625 48.390625 19.1875 42.75 
Q 14.984375 37.109375 14.984375 27.296875 
Q 14.984375 17.484375 19.15625 11.84375 
Q 23.34375 6.203125 30.609375 6.203125 
Q 37.796875 6.203125 41.984375 11.859375 
Q 46.1875 17.53125 46.1875 27.296875 
Q 46.1875 37.015625 41.984375 42.703125 
Q 37.796875 48.390625 30.609375 48.390625 
z
M 30.609375 56 
Q 42.328125 56 49.015625 48.375 
Q 55.71875 40.765625 55.71875 27.296875 
Q 55.71875 13.875 49.015625 6.21875 
Q 42.328125 -1.421875 30.609375 -1.421875 
Q 18.84375 -1.421875 12.171875 6.21875 
Q 5.515625 13.875 5.515625 27.296875 
Q 5.515625 40.765625 12.171875 48.375 
Q 18.84375 56 30.609375 56 
z
" id="DejaVuSans-111"/>
      <path d="M 48.78125 52.59375 
L 48.78125 44.1875 
Q 44.96875 46.296875 41.140625 47.34375 
Q 37.3125 48.390625 33.40625 48.390625 
Q 24.65625 48.390625 19.8125 42.84375 
Q 14.984375 37.3125 14.984375 27.296875 
Q 14.984375 17.28125 19.8125 11.734375 
Q 24.65625 6.203125 33.40625 6.203125 
Q 37.3125 6.203125 41.140625 7.25 
Q 44.96875 8.296875 48.78125 10.40625 
L 48.78125 2.09375 
Q 45.015625 0.34375 40.984375 -0.53125 
Q 36.96875 -1.421875 32.421875 -1.421875 
Q 20.0625 -1.421875 12.78125 6.34375 
Q 5.515625 14.109375 5.515625 27.296875 
Q 5.515625 40.671875 12.859375 48.328125 
Q 20.21875 56 33.015625 56 
Q 37.15625 56 41.109375 55.140625 
Q 45.0625 54.296875 48.78125 52.59375 
z
" id="DejaVuSans-99"/>
      <path d="M 54.890625 33.015625 
L 54.890625 0 
L 45.90625 0 
L 45.90625 32.71875 
Q 45.90625 40.484375 42.875 44.328125 
Q 39.84375 48.1875 33.796875 48.1875 
Q 26.515625 48.1875 22.3125 43.546875 
Q 18.109375 38.921875 18.109375 30.90625 
L 18.109375 0 
L 9.078125 0 
L 9.078125 75.984375 
L 18.109375 75.984375 
L 18.109375 46.1875 
Q 21.34375 51.125 25.703125 53.5625 
Q 30.078125 56 35.796875 56 
Q 45.21875 56 50.046875 50.171875 
Q 54.890625 44.34375 54.890625 33.015625 
z
" id="DejaVuSans-104"/>
     </defs>
     <g transform="translate(227.718518 274.476562)scale(0.1 -0.1)">
      <use xlink:href="#DejaVuSans-101"/>
      <use x="61.523438" xlink:href="#DejaVuSans-112"/>
      <use x="125" xlink:href="#DejaVuSans-111"/>
      <use x="186.181641" xlink:href="#DejaVuSans-99"/>
      <use x="241.162109" xlink:href="#DejaVuSans-104"/>
     </g>
    </g>
   </g>
   <g id="matplotlib.axis_2">
    <g id="ytick_1">
     <g id="line2d_7">
      <defs>
       <path d="M 0 0 
L -3.5 0 
" id="m4f8b04b602" style="stroke:#000000;stroke-width:0.8;"/>
      </defs>
      <g>
       <use style="stroke:#000000;stroke-width:0.8;" x="57.05" xlink:href="#m4f8b04b602" y="245.114404"/>
      </g>
     </g>
     <g id="text_8">
      <!-- 2500 -->
      <g transform="translate(24.6 248.913623)scale(0.1 -0.1)">
       <use xlink:href="#DejaVuSans-50"/>
       <use x="63.623047" xlink:href="#DejaVuSans-53"/>
       <use x="127.246094" xlink:href="#DejaVuSans-48"/>
       <use x="190.869141" xlink:href="#DejaVuSans-48"/>
      </g>
     </g>
    </g>
    <g id="ytick_2">
     <g id="line2d_8">
      <g>
       <use style="stroke:#000000;stroke-width:0.8;" x="57.05" xlink:href="#m4f8b04b602" y="207.40331"/>
      </g>
     </g>
     <g id="text_9">
      <!-- 3000 -->
      <defs>
       <path d="M 40.578125 39.3125 
Q 47.65625 37.796875 51.625 33 
Q 55.609375 28.21875 55.609375 21.1875 
Q 55.609375 10.40625 48.1875 4.484375 
Q 40.765625 -1.421875 27.09375 -1.421875 
Q 22.515625 -1.421875 17.65625 -0.515625 
Q 12.796875 0.390625 7.625 2.203125 
L 7.625 11.71875 
Q 11.71875 9.328125 16.59375 8.109375 
Q 21.484375 6.890625 26.8125 6.890625 
Q 36.078125 6.890625 40.9375 10.546875 
Q 45.796875 14.203125 45.796875 21.1875 
Q 45.796875 27.640625 41.28125 31.265625 
Q 36.765625 34.90625 28.71875 34.90625 
L 20.21875 34.90625 
L 20.21875 43.015625 
L 29.109375 43.015625 
Q 36.375 43.015625 40.234375 45.921875 
Q 44.09375 48.828125 44.09375 54.296875 
Q 44.09375 59.90625 40.109375 62.90625 
Q 36.140625 65.921875 28.71875 65.921875 
Q 24.65625 65.921875 20.015625 65.03125 
Q 15.375 64.15625 9.8125 62.3125 
L 9.8125 71.09375 
Q 15.4375 72.65625 20.34375 73.4375 
Q 25.25 74.21875 29.59375 74.21875 
Q 40.828125 74.21875 47.359375 69.109375 
Q 53.90625 64.015625 53.90625 55.328125 
Q 53.90625 49.265625 50.4375 45.09375 
Q 46.96875 40.921875 40.578125 39.3125 
z
" id="DejaVuSans-51"/>
      </defs>
      <g transform="translate(24.6 211.202529)scale(0.1 -0.1)">
       <use xlink:href="#DejaVuSans-51"/>
       <use x="63.623047" xlink:href="#DejaVuSans-48"/>
       <use x="127.246094" xlink:href="#DejaVuSans-48"/>
       <use x="190.869141" xlink:href="#DejaVuSans-48"/>
      </g>
     </g>
    </g>
    <g id="ytick_3">
     <g id="line2d_9">
      <g>
       <use style="stroke:#000000;stroke-width:0.8;" x="57.05" xlink:href="#m4f8b04b602" y="169.692216"/>
      </g>
     </g>
     <g id="text_10">
      <!-- 3500 -->
      <g transform="translate(24.6 173.491434)scale(0.1 -0.1)">
       <use xlink:href="#DejaVuSans-51"/>
       <use x="63.623047" xlink:href="#DejaVuSans-53"/>
       <use x="127.246094" xlink:href="#DejaVuSans-48"/>
       <use x="190.869141" xlink:href="#DejaVuSans-48"/>
      </g>
     </g>
    </g>
    <g id="ytick_4">
     <g id="line2d_10">
      <g>
       <use style="stroke:#000000;stroke-width:0.8;" x="57.05" xlink:href="#m4f8b04b602" y="131.981121"/>
      </g>
     </g>
     <g id="text_11">
      <!-- 4000 -->
      <defs>
       <path d="M 37.796875 64.3125 
L 12.890625 25.390625 
L 37.796875 25.390625 
z
M 35.203125 72.90625 
L 47.609375 72.90625 
L 47.609375 25.390625 
L 58.015625 25.390625 
L 58.015625 17.1875 
L 47.609375 17.1875 
L 47.609375 0 
L 37.796875 0 
L 37.796875 17.1875 
L 4.890625 17.1875 
L 4.890625 26.703125 
z
" id="DejaVuSans-52"/>
      </defs>
      <g transform="translate(24.6 135.78034)scale(0.1 -0.1)">
       <use xlink:href="#DejaVuSans-52"/>
       <use x="63.623047" xlink:href="#DejaVuSans-48"/>
       <use x="127.246094" xlink:href="#DejaVuSans-48"/>
       <use x="190.869141" xlink:href="#DejaVuSans-48"/>
      </g>
     </g>
    </g>
    <g id="ytick_5">
     <g id="line2d_11">
      <g>
       <use style="stroke:#000000;stroke-width:0.8;" x="57.05" xlink:href="#m4f8b04b602" y="94.270027"/>
      </g>
     </g>
     <g id="text_12">
      <!-- 4500 -->
      <g transform="translate(24.6 98.069246)scale(0.1 -0.1)">
       <use xlink:href="#DejaVuSans-52"/>
       <use x="63.623047" xlink:href="#DejaVuSans-53"/>
       <use x="127.246094" xlink:href="#DejaVuSans-48"/>
       <use x="190.869141" xlink:href="#DejaVuSans-48"/>
      </g>
     </g>
    </g>
    <g id="ytick_6">
     <g id="line2d_12">
      <g>
       <use style="stroke:#000000;stroke-width:0.8;" x="57.05" xlink:href="#m4f8b04b602" y="56.558932"/>
      </g>
     </g>
     <g id="text_13">
      <!-- 5000 -->
      <g transform="translate(24.6 60.358151)scale(0.1 -0.1)">
       <use xlink:href="#DejaVuSans-53"/>
       <use x="63.623047" xlink:href="#DejaVuSans-48"/>
       <use x="127.246094" xlink:href="#DejaVuSans-48"/>
       <use x="190.869141" xlink:href="#DejaVuSans-48"/>
      </g>
     </g>
    </g>
    <g id="text_14">
     <!-- loss value -->
     <defs>
      <path d="M 9.421875 75.984375 
L 18.40625 75.984375 
L 18.40625 0 
L 9.421875 0 
z
" id="DejaVuSans-108"/>
      <path d="M 44.28125 53.078125 
L 44.28125 44.578125 
Q 40.484375 46.53125 36.375 47.5 
Q 32.28125 48.484375 27.875 48.484375 
Q 21.1875 48.484375 17.84375 46.4375 
Q 14.5 44.390625 14.5 40.28125 
Q 14.5 37.15625 16.890625 35.375 
Q 19.28125 33.59375 26.515625 31.984375 
L 29.59375 31.296875 
Q 39.15625 29.25 43.1875 25.515625 
Q 47.21875 21.78125 47.21875 15.09375 
Q 47.21875 7.46875 41.1875 3.015625 
Q 35.15625 -1.421875 24.609375 -1.421875 
Q 20.21875 -1.421875 15.453125 -0.5625 
Q 10.6875 0.296875 5.421875 2 
L 5.421875 11.28125 
Q 10.40625 8.6875 15.234375 7.390625 
Q 20.0625 6.109375 24.8125 6.109375 
Q 31.15625 6.109375 34.5625 8.28125 
Q 37.984375 10.453125 37.984375 14.40625 
Q 37.984375 18.0625 35.515625 20.015625 
Q 33.0625 21.96875 24.703125 23.78125 
L 21.578125 24.515625 
Q 13.234375 26.265625 9.515625 29.90625 
Q 5.8125 33.546875 5.8125 39.890625 
Q 5.8125 47.609375 11.28125 51.796875 
Q 16.75 56 26.8125 56 
Q 31.78125 56 36.171875 55.265625 
Q 40.578125 54.546875 44.28125 53.078125 
z
" id="DejaVuSans-115"/>
      <path id="DejaVuSans-32"/>
      <path d="M 2.984375 54.6875 
L 12.5 54.6875 
L 29.59375 8.796875 
L 46.6875 54.6875 
L 56.203125 54.6875 
L 35.6875 0 
L 23.484375 0 
z
" id="DejaVuSans-118"/>
      <path d="M 34.28125 27.484375 
Q 23.390625 27.484375 19.1875 25 
Q 14.984375 22.515625 14.984375 16.5 
Q 14.984375 11.71875 18.140625 8.90625 
Q 21.296875 6.109375 26.703125 6.109375 
Q 34.1875 6.109375 38.703125 11.40625 
Q 43.21875 16.703125 43.21875 25.484375 
L 43.21875 27.484375 
z
M 52.203125 31.203125 
L 52.203125 0 
L 43.21875 0 
L 43.21875 8.296875 
Q 40.140625 3.328125 35.546875 0.953125 
Q 30.953125 -1.421875 24.3125 -1.421875 
Q 15.921875 -1.421875 10.953125 3.296875 
Q 6 8.015625 6 15.921875 
Q 6 25.140625 12.171875 29.828125 
Q 18.359375 34.515625 30.609375 34.515625 
L 43.21875 34.515625 
L 43.21875 35.40625 
Q 43.21875 41.609375 39.140625 45 
Q 35.0625 48.390625 27.6875 48.390625 
Q 23 48.390625 18.546875 47.265625 
Q 14.109375 46.140625 10.015625 43.890625 
L 10.015625 52.203125 
Q 14.9375 54.109375 19.578125 55.046875 
Q 24.21875 56 28.609375 56 
Q 40.484375 56 46.34375 49.84375 
Q 52.203125 43.703125 52.203125 31.203125 
z
" id="DejaVuSans-97"/>
      <path d="M 8.5 21.578125 
L 8.5 54.6875 
L 17.484375 54.6875 
L 17.484375 21.921875 
Q 17.484375 14.15625 20.5 10.265625 
Q 23.53125 6.390625 29.59375 6.390625 
Q 36.859375 6.390625 41.078125 11.03125 
Q 45.3125 15.671875 45.3125 23.6875 
L 45.3125 54.6875 
L 54.296875 54.6875 
L 54.296875 0 
L 45.3125 0 
L 45.3125 8.40625 
Q 42.046875 3.421875 37.71875 1 
Q 33.40625 -1.421875 27.6875 -1.421875 
Q 18.265625 -1.421875 13.375 4.4375 
Q 8.5 10.296875 8.5 21.578125 
z
M 31.109375 56 
z
" id="DejaVuSans-117"/>
     </defs>
     <g transform="translate(18.520312 161.404687)rotate(-90)scale(0.1 -0.1)">
      <use xlink:href="#DejaVuSans-108"/>
      <use x="27.783203" xlink:href="#DejaVuSans-111"/>
      <use x="88.964844" xlink:href="#DejaVuSans-115"/>
      <use x="141.064453" xlink:href="#DejaVuSans-115"/>
      <use x="193.164062" xlink:href="#DejaVuSans-32"/>
      <use x="224.951172" xlink:href="#DejaVuSans-118"/>
      <use x="284.130859" xlink:href="#DejaVuSans-97"/>
      <use x="345.410156" xlink:href="#DejaVuSans-108"/>
      <use x="373.193359" xlink:href="#DejaVuSans-117"/>
      <use x="436.572266" xlink:href="#DejaVuSans-101"/>
     </g>
    </g>
   </g>
   <g id="line2d_13">
    <path clip-path="url(#pae0ff694f3)" d="M 73.949695 36.772727 
L 88.032774 99.263559 
L 102.115853 116.371359 
L 116.198932 125.689968 
L 130.282011 134.285782 
L 144.36509 137.83713 
L 158.448169 144.697369 
L 172.531248 151.233151 
L 186.614327 156.138228 
L 200.697406 165.203812 
L 214.780485 168.707952 
L 228.863564 173.6613 
L 242.946643 178.095559 
L 257.029722 181.682462 
L 271.112801 185.753873 
L 285.19588 190.051872 
L 299.278958 193.442252 
L 313.362037 193.271651 
L 327.445116 195.921348 
L 341.528195 197.645468 
L 355.611274 197.487917 
L 369.694353 199.092303 
L 383.777432 199.116846 
L 397.860511 202.089917 
L 411.94359 204.559272 
" style="fill:none;stroke:#ff0000;stroke-linecap:square;stroke-width:1.5;"/>
   </g>
   <g id="line2d_14">
    <path clip-path="url(#pae0ff694f3)" d="M 73.949695 162.502245 
L 88.032774 168.671232 
L 102.115853 180.304949 
L 116.198932 183.962548 
L 130.282011 181.966573 
L 144.36509 167.094111 
L 158.448169 174.468285 
L 172.531248 198.778526 
L 186.614327 201.937823 
L 200.697406 196.9746 
L 214.780485 197.749023 
L 228.863564 199.810764 
L 242.946643 219.375326 
L 257.029722 213.561807 
L 271.112801 225.114918 
L 285.19588 222.58792 
L 299.278958 217.006724 
L 313.362037 222.714752 
L 327.445116 231.233781 
L 341.528195 229.459136 
L 355.611274 231.330065 
L 369.694353 230.823814 
L 383.777432 231.988885 
L 397.860511 234.762818 
L 411.94359 236.227273 
" style="fill:none;stroke:#0000ff;stroke-linecap:square;stroke-width:1.5;"/>
   </g>
   <g id="patch_3">
    <path d="M 57.05 246.2 
L 57.05 26.8 
" style="fill:none;stroke:#000000;stroke-linecap:square;stroke-linejoin:miter;stroke-width:0.8;"/>
   </g>
   <g id="patch_4">
    <path d="M 428.843285 246.2 
L 428.843285 26.8 
" style="fill:none;stroke:#000000;stroke-linecap:square;stroke-linejoin:miter;stroke-width:0.8;"/>
   </g>
   <g id="patch_5">
    <path d="M 57.05 246.2 
L 428.843285 246.2 
" style="fill:none;stroke:#000000;stroke-linecap:square;stroke-linejoin:miter;stroke-width:0.8;"/>
   </g>
   <g id="patch_6">
    <path d="M 57.05 26.8 
L 428.843285 26.8 
" style="fill:none;stroke:#000000;stroke-linecap:square;stroke-linejoin:miter;stroke-width:0.8;"/>
   </g>
   <g id="text_15">
    <!-- Loss - MSE -->
    <defs>
     <path d="M 9.8125 72.90625 
L 19.671875 72.90625 
L 19.671875 8.296875 
L 55.171875 8.296875 
L 55.171875 0 
L 9.8125 0 
z
" id="DejaVuSans-76"/>
     <path d="M 4.890625 31.390625 
L 31.203125 31.390625 
L 31.203125 23.390625 
L 4.890625 23.390625 
z
" id="DejaVuSans-45"/>
     <path d="M 9.8125 72.90625 
L 24.515625 72.90625 
L 43.109375 23.296875 
L 61.8125 72.90625 
L 76.515625 72.90625 
L 76.515625 0 
L 66.890625 0 
L 66.890625 64.015625 
L 48.09375 14.015625 
L 38.1875 14.015625 
L 19.390625 64.015625 
L 19.390625 0 
L 9.8125 0 
z
" id="DejaVuSans-77"/>
     <path d="M 53.515625 70.515625 
L 53.515625 60.890625 
Q 47.90625 63.578125 42.921875 64.890625 
Q 37.9375 66.21875 33.296875 66.21875 
Q 25.25 66.21875 20.875 63.09375 
Q 16.5 59.96875 16.5 54.203125 
Q 16.5 49.359375 19.40625 46.890625 
Q 22.3125 44.4375 30.421875 42.921875 
L 36.375 41.703125 
Q 47.40625 39.59375 52.65625 34.296875 
Q 57.90625 29 57.90625 20.125 
Q 57.90625 9.515625 50.796875 4.046875 
Q 43.703125 -1.421875 29.984375 -1.421875 
Q 24.8125 -1.421875 18.96875 -0.25 
Q 13.140625 0.921875 6.890625 3.21875 
L 6.890625 13.375 
Q 12.890625 10.015625 18.65625 8.296875 
Q 24.421875 6.59375 29.984375 6.59375 
Q 38.421875 6.59375 43.015625 9.90625 
Q 47.609375 13.234375 47.609375 19.390625 
Q 47.609375 24.75 44.3125 27.78125 
Q 41.015625 30.8125 33.5 32.328125 
L 27.484375 33.5 
Q 16.453125 35.6875 11.515625 40.375 
Q 6.59375 45.0625 6.59375 53.421875 
Q 6.59375 63.09375 13.40625 68.65625 
Q 20.21875 74.21875 32.171875 74.21875 
Q 37.3125 74.21875 42.625 73.28125 
Q 47.953125 72.359375 53.515625 70.515625 
z
" id="DejaVuSans-83"/>
     <path d="M 9.8125 72.90625 
L 55.90625 72.90625 
L 55.90625 64.59375 
L 19.671875 64.59375 
L 19.671875 43.015625 
L 54.390625 43.015625 
L 54.390625 34.71875 
L 19.671875 34.71875 
L 19.671875 8.296875 
L 56.78125 8.296875 
L 56.78125 0 
L 9.8125 0 
z
" id="DejaVuSans-69"/>
    </defs>
    <g transform="translate(211.030393 20.8)scale(0.12 -0.12)">
     <use xlink:href="#DejaVuSans-76"/>
     <use x="53.962891" xlink:href="#DejaVuSans-111"/>
     <use x="115.144531" xlink:href="#DejaVuSans-115"/>
     <use x="167.244141" xlink:href="#DejaVuSans-115"/>
     <use x="219.34375" xlink:href="#DejaVuSans-32"/>
     <use x="251.130859" xlink:href="#DejaVuSans-45"/>
     <use x="287.214844" xlink:href="#DejaVuSans-32"/>
     <use x="319.001953" xlink:href="#DejaVuSans-77"/>
     <use x="405.28125" xlink:href="#DejaVuSans-83"/>
     <use x="468.757812" xlink:href="#DejaVuSans-69"/>
    </g>
   </g>
   <g id="legend_1">
    <g id="patch_7">
     <path d="M 366.568285 64.15625 
L 421.843285 64.15625 
Q 423.843285 64.15625 423.843285 62.15625 
L 423.843285 33.8 
Q 423.843285 31.8 421.843285 31.8 
L 366.568285 31.8 
Q 364.568285 31.8 364.568285 33.8 
L 364.568285 62.15625 
Q 364.568285 64.15625 366.568285 64.15625 
z
" style="fill:#ffffff;opacity:0.8;stroke:#cccccc;stroke-linejoin:miter;"/>
    </g>
    <g id="line2d_15">
     <path d="M 368.568285 39.898437 
L 388.568285 39.898437 
" style="fill:none;stroke:#ff0000;stroke-linecap:square;stroke-width:1.5;"/>
    </g>
    <g id="line2d_16"/>
    <g id="text_16">
     <!-- train -->
     <defs>
      <path d="M 18.3125 70.21875 
L 18.3125 54.6875 
L 36.8125 54.6875 
L 36.8125 47.703125 
L 18.3125 47.703125 
L 18.3125 18.015625 
Q 18.3125 11.328125 20.140625 9.421875 
Q 21.96875 7.515625 27.59375 7.515625 
L 36.8125 7.515625 
L 36.8125 0 
L 27.59375 0 
Q 17.1875 0 13.234375 3.875 
Q 9.28125 7.765625 9.28125 18.015625 
L 9.28125 47.703125 
L 2.6875 47.703125 
L 2.6875 54.6875 
L 9.28125 54.6875 
L 9.28125 70.21875 
z
" id="DejaVuSans-116"/>
      <path d="M 41.109375 46.296875 
Q 39.59375 47.171875 37.8125 47.578125 
Q 36.03125 48 33.890625 48 
Q 26.265625 48 22.1875 43.046875 
Q 18.109375 38.09375 18.109375 28.8125 
L 18.109375 0 
L 9.078125 0 
L 9.078125 54.6875 
L 18.109375 54.6875 
L 18.109375 46.1875 
Q 20.953125 51.171875 25.484375 53.578125 
Q 30.03125 56 36.53125 56 
Q 37.453125 56 38.578125 55.875 
Q 39.703125 55.765625 41.0625 55.515625 
z
" id="DejaVuSans-114"/>
      <path d="M 9.421875 54.6875 
L 18.40625 54.6875 
L 18.40625 0 
L 9.421875 0 
z
M 9.421875 75.984375 
L 18.40625 75.984375 
L 18.40625 64.59375 
L 9.421875 64.59375 
z
" id="DejaVuSans-105"/>
      <path d="M 54.890625 33.015625 
L 54.890625 0 
L 45.90625 0 
L 45.90625 32.71875 
Q 45.90625 40.484375 42.875 44.328125 
Q 39.84375 48.1875 33.796875 48.1875 
Q 26.515625 48.1875 22.3125 43.546875 
Q 18.109375 38.921875 18.109375 30.90625 
L 18.109375 0 
L 9.078125 0 
L 9.078125 54.6875 
L 18.109375 54.6875 
L 18.109375 46.1875 
Q 21.34375 51.125 25.703125 53.5625 
Q 30.078125 56 35.796875 56 
Q 45.21875 56 50.046875 50.171875 
Q 54.890625 44.34375 54.890625 33.015625 
z
" id="DejaVuSans-110"/>
     </defs>
     <g transform="translate(396.568285 43.398437)scale(0.1 -0.1)">
      <use xlink:href="#DejaVuSans-116"/>
      <use x="39.208984" xlink:href="#DejaVuSans-114"/>
      <use x="80.322266" xlink:href="#DejaVuSans-97"/>
      <use x="141.601562" xlink:href="#DejaVuSans-105"/>
      <use x="169.384766" xlink:href="#DejaVuSans-110"/>
     </g>
    </g>
    <g id="line2d_17">
     <path d="M 368.568285 54.576562 
L 388.568285 54.576562 
" style="fill:none;stroke:#0000ff;stroke-linecap:square;stroke-width:1.5;"/>
    </g>
    <g id="line2d_18"/>
    <g id="text_17">
     <!-- val -->
     <g transform="translate(396.568285 58.076562)scale(0.1 -0.1)">
      <use xlink:href="#DejaVuSans-118"/>
      <use x="59.179688" xlink:href="#DejaVuSans-97"/>
      <use x="120.458984" xlink:href="#DejaVuSans-108"/>
     </g>
    </g>
   </g>
  </g>
  <g id="axes_2">
   <g id="patch_8">
    <path d="M 477.3375 246.2 
L 849.130785 246.2 
L 849.130785 26.8 
L 477.3375 26.8 
z
" style="fill:#ffffff;"/>
   </g>
   <g id="matplotlib.axis_3">
    <g id="xtick_7">
     <g id="line2d_19">
      <g>
       <use style="stroke:#000000;stroke-width:0.8;" x="494.237195" xlink:href="#m4eba06fd7d" y="246.2"/>
      </g>
     </g>
     <g id="text_18">
      <!-- 0 -->
      <g transform="translate(491.055945 260.798437)scale(0.1 -0.1)">
       <use xlink:href="#DejaVuSans-48"/>
      </g>
     </g>
    </g>
    <g id="xtick_8">
     <g id="line2d_20">
      <g>
       <use style="stroke:#000000;stroke-width:0.8;" x="564.65259" xlink:href="#m4eba06fd7d" y="246.2"/>
      </g>
     </g>
     <g id="text_19">
      <!-- 5 -->
      <g transform="translate(561.47134 260.798437)scale(0.1 -0.1)">
       <use xlink:href="#DejaVuSans-53"/>
      </g>
     </g>
    </g>
    <g id="xtick_9">
     <g id="line2d_21">
      <g>
       <use style="stroke:#000000;stroke-width:0.8;" x="635.067985" xlink:href="#m4eba06fd7d" y="246.2"/>
      </g>
     </g>
     <g id="text_20">
      <!-- 10 -->
      <g transform="translate(628.705485 260.798437)scale(0.1 -0.1)">
       <use xlink:href="#DejaVuSans-49"/>
       <use x="63.623047" xlink:href="#DejaVuSans-48"/>
      </g>
     </g>
    </g>
    <g id="xtick_10">
     <g id="line2d_22">
      <g>
       <use style="stroke:#000000;stroke-width:0.8;" x="705.48338" xlink:href="#m4eba06fd7d" y="246.2"/>
      </g>
     </g>
     <g id="text_21">
      <!-- 15 -->
      <g transform="translate(699.12088 260.798437)scale(0.1 -0.1)">
       <use xlink:href="#DejaVuSans-49"/>
       <use x="63.623047" xlink:href="#DejaVuSans-53"/>
      </g>
     </g>
    </g>
    <g id="xtick_11">
     <g id="line2d_23">
      <g>
       <use style="stroke:#000000;stroke-width:0.8;" x="775.898774" xlink:href="#m4eba06fd7d" y="246.2"/>
      </g>
     </g>
     <g id="text_22">
      <!-- 20 -->
      <g transform="translate(769.536274 260.798437)scale(0.1 -0.1)">
       <use xlink:href="#DejaVuSans-50"/>
       <use x="63.623047" xlink:href="#DejaVuSans-48"/>
      </g>
     </g>
    </g>
    <g id="xtick_12">
     <g id="line2d_24">
      <g>
       <use style="stroke:#000000;stroke-width:0.8;" x="846.314169" xlink:href="#m4eba06fd7d" y="246.2"/>
      </g>
     </g>
     <g id="text_23">
      <!-- 25 -->
      <g transform="translate(839.951669 260.798437)scale(0.1 -0.1)">
       <use xlink:href="#DejaVuSans-50"/>
       <use x="63.623047" xlink:href="#DejaVuSans-53"/>
      </g>
     </g>
    </g>
    <g id="text_24">
     <!-- epoch -->
     <g transform="translate(648.006018 274.476562)scale(0.1 -0.1)">
      <use xlink:href="#DejaVuSans-101"/>
      <use x="61.523438" xlink:href="#DejaVuSans-112"/>
      <use x="125" xlink:href="#DejaVuSans-111"/>
      <use x="186.181641" xlink:href="#DejaVuSans-99"/>
      <use x="241.162109" xlink:href="#DejaVuSans-104"/>
     </g>
    </g>
   </g>
   <g id="matplotlib.axis_4">
    <g id="ytick_7">
     <g id="line2d_25">
      <g>
       <use style="stroke:#000000;stroke-width:0.8;" x="477.3375" xlink:href="#m4f8b04b602" y="246.048662"/>
      </g>
     </g>
     <g id="text_25">
      <!-- 34 -->
      <g transform="translate(457.6125 249.847881)scale(0.1 -0.1)">
       <use xlink:href="#DejaVuSans-51"/>
       <use x="63.623047" xlink:href="#DejaVuSans-52"/>
      </g>
     </g>
    </g>
    <g id="ytick_8">
     <g id="line2d_26">
      <g>
       <use style="stroke:#000000;stroke-width:0.8;" x="477.3375" xlink:href="#m4f8b04b602" y="218.062616"/>
      </g>
     </g>
     <g id="text_26">
      <!-- 36 -->
      <defs>
       <path d="M 33.015625 40.375 
Q 26.375 40.375 22.484375 35.828125 
Q 18.609375 31.296875 18.609375 23.390625 
Q 18.609375 15.53125 22.484375 10.953125 
Q 26.375 6.390625 33.015625 6.390625 
Q 39.65625 6.390625 43.53125 10.953125 
Q 47.40625 15.53125 47.40625 23.390625 
Q 47.40625 31.296875 43.53125 35.828125 
Q 39.65625 40.375 33.015625 40.375 
z
M 52.59375 71.296875 
L 52.59375 62.3125 
Q 48.875 64.0625 45.09375 64.984375 
Q 41.3125 65.921875 37.59375 65.921875 
Q 27.828125 65.921875 22.671875 59.328125 
Q 17.53125 52.734375 16.796875 39.40625 
Q 19.671875 43.65625 24.015625 45.921875 
Q 28.375 48.1875 33.59375 48.1875 
Q 44.578125 48.1875 50.953125 41.515625 
Q 57.328125 34.859375 57.328125 23.390625 
Q 57.328125 12.15625 50.6875 5.359375 
Q 44.046875 -1.421875 33.015625 -1.421875 
Q 20.359375 -1.421875 13.671875 8.265625 
Q 6.984375 17.96875 6.984375 36.375 
Q 6.984375 53.65625 15.1875 63.9375 
Q 23.390625 74.21875 37.203125 74.21875 
Q 40.921875 74.21875 44.703125 73.484375 
Q 48.484375 72.75 52.59375 71.296875 
z
" id="DejaVuSans-54"/>
      </defs>
      <g transform="translate(457.6125 221.861835)scale(0.1 -0.1)">
       <use xlink:href="#DejaVuSans-51"/>
       <use x="63.623047" xlink:href="#DejaVuSans-54"/>
      </g>
     </g>
    </g>
    <g id="ytick_9">
     <g id="line2d_27">
      <g>
       <use style="stroke:#000000;stroke-width:0.8;" x="477.3375" xlink:href="#m4f8b04b602" y="190.07657"/>
      </g>
     </g>
     <g id="text_27">
      <!-- 38 -->
      <defs>
       <path d="M 31.78125 34.625 
Q 24.75 34.625 20.71875 30.859375 
Q 16.703125 27.09375 16.703125 20.515625 
Q 16.703125 13.921875 20.71875 10.15625 
Q 24.75 6.390625 31.78125 6.390625 
Q 38.8125 6.390625 42.859375 10.171875 
Q 46.921875 13.96875 46.921875 20.515625 
Q 46.921875 27.09375 42.890625 30.859375 
Q 38.875 34.625 31.78125 34.625 
z
M 21.921875 38.8125 
Q 15.578125 40.375 12.03125 44.71875 
Q 8.5 49.078125 8.5 55.328125 
Q 8.5 64.0625 14.71875 69.140625 
Q 20.953125 74.21875 31.78125 74.21875 
Q 42.671875 74.21875 48.875 69.140625 
Q 55.078125 64.0625 55.078125 55.328125 
Q 55.078125 49.078125 51.53125 44.71875 
Q 48 40.375 41.703125 38.8125 
Q 48.828125 37.15625 52.796875 32.3125 
Q 56.78125 27.484375 56.78125 20.515625 
Q 56.78125 9.90625 50.3125 4.234375 
Q 43.84375 -1.421875 31.78125 -1.421875 
Q 19.734375 -1.421875 13.25 4.234375 
Q 6.78125 9.90625 6.78125 20.515625 
Q 6.78125 27.484375 10.78125 32.3125 
Q 14.796875 37.15625 21.921875 38.8125 
z
M 18.3125 54.390625 
Q 18.3125 48.734375 21.84375 45.5625 
Q 25.390625 42.390625 31.78125 42.390625 
Q 38.140625 42.390625 41.71875 45.5625 
Q 45.3125 48.734375 45.3125 54.390625 
Q 45.3125 60.0625 41.71875 63.234375 
Q 38.140625 66.40625 31.78125 66.40625 
Q 25.390625 66.40625 21.84375 63.234375 
Q 18.3125 60.0625 18.3125 54.390625 
z
" id="DejaVuSans-56"/>
      </defs>
      <g transform="translate(457.6125 193.875788)scale(0.1 -0.1)">
       <use xlink:href="#DejaVuSans-51"/>
       <use x="63.623047" xlink:href="#DejaVuSans-56"/>
      </g>
     </g>
    </g>
    <g id="ytick_10">
     <g id="line2d_28">
      <g>
       <use style="stroke:#000000;stroke-width:0.8;" x="477.3375" xlink:href="#m4f8b04b602" y="162.090524"/>
      </g>
     </g>
     <g id="text_28">
      <!-- 40 -->
      <g transform="translate(457.6125 165.889742)scale(0.1 -0.1)">
       <use xlink:href="#DejaVuSans-52"/>
       <use x="63.623047" xlink:href="#DejaVuSans-48"/>
      </g>
     </g>
    </g>
    <g id="ytick_11">
     <g id="line2d_29">
      <g>
       <use style="stroke:#000000;stroke-width:0.8;" x="477.3375" xlink:href="#m4f8b04b602" y="134.104477"/>
      </g>
     </g>
     <g id="text_29">
      <!-- 42 -->
      <g transform="translate(457.6125 137.903696)scale(0.1 -0.1)">
       <use xlink:href="#DejaVuSans-52"/>
       <use x="63.623047" xlink:href="#DejaVuSans-50"/>
      </g>
     </g>
    </g>
    <g id="ytick_12">
     <g id="line2d_30">
      <g>
       <use style="stroke:#000000;stroke-width:0.8;" x="477.3375" xlink:href="#m4f8b04b602" y="106.118431"/>
      </g>
     </g>
     <g id="text_30">
      <!-- 44 -->
      <g transform="translate(457.6125 109.91765)scale(0.1 -0.1)">
       <use xlink:href="#DejaVuSans-52"/>
       <use x="63.623047" xlink:href="#DejaVuSans-52"/>
      </g>
     </g>
    </g>
    <g id="ytick_13">
     <g id="line2d_31">
      <g>
       <use style="stroke:#000000;stroke-width:0.8;" x="477.3375" xlink:href="#m4f8b04b602" y="78.132385"/>
      </g>
     </g>
     <g id="text_31">
      <!-- 46 -->
      <g transform="translate(457.6125 81.931604)scale(0.1 -0.1)">
       <use xlink:href="#DejaVuSans-52"/>
       <use x="63.623047" xlink:href="#DejaVuSans-54"/>
      </g>
     </g>
    </g>
    <g id="ytick_14">
     <g id="line2d_32">
      <g>
       <use style="stroke:#000000;stroke-width:0.8;" x="477.3375" xlink:href="#m4f8b04b602" y="50.146339"/>
      </g>
     </g>
     <g id="text_32">
      <!-- 48 -->
      <g transform="translate(457.6125 53.945557)scale(0.1 -0.1)">
       <use xlink:href="#DejaVuSans-52"/>
       <use x="63.623047" xlink:href="#DejaVuSans-56"/>
      </g>
     </g>
    </g>
    <g id="text_33">
     <!-- metric value -->
     <defs>
      <path d="M 52 44.1875 
Q 55.375 50.25 60.0625 53.125 
Q 64.75 56 71.09375 56 
Q 79.640625 56 84.28125 50.015625 
Q 88.921875 44.046875 88.921875 33.015625 
L 88.921875 0 
L 79.890625 0 
L 79.890625 32.71875 
Q 79.890625 40.578125 77.09375 44.375 
Q 74.3125 48.1875 68.609375 48.1875 
Q 61.625 48.1875 57.5625 43.546875 
Q 53.515625 38.921875 53.515625 30.90625 
L 53.515625 0 
L 44.484375 0 
L 44.484375 32.71875 
Q 44.484375 40.625 41.703125 44.40625 
Q 38.921875 48.1875 33.109375 48.1875 
Q 26.21875 48.1875 22.15625 43.53125 
Q 18.109375 38.875 18.109375 30.90625 
L 18.109375 0 
L 9.078125 0 
L 9.078125 54.6875 
L 18.109375 54.6875 
L 18.109375 46.1875 
Q 21.1875 51.21875 25.484375 53.609375 
Q 29.78125 56 35.6875 56 
Q 41.65625 56 45.828125 52.96875 
Q 50 49.953125 52 44.1875 
z
" id="DejaVuSans-109"/>
     </defs>
     <g transform="translate(451.532813 167.847656)rotate(-90)scale(0.1 -0.1)">
      <use xlink:href="#DejaVuSans-109"/>
      <use x="97.412109" xlink:href="#DejaVuSans-101"/>
      <use x="158.935547" xlink:href="#DejaVuSans-116"/>
      <use x="198.144531" xlink:href="#DejaVuSans-114"/>
      <use x="239.257812" xlink:href="#DejaVuSans-105"/>
      <use x="267.041016" xlink:href="#DejaVuSans-99"/>
      <use x="322.021484" xlink:href="#DejaVuSans-32"/>
      <use x="353.808594" xlink:href="#DejaVuSans-118"/>
      <use x="412.988281" xlink:href="#DejaVuSans-97"/>
      <use x="474.267578" xlink:href="#DejaVuSans-108"/>
      <use x="502.050781" xlink:href="#DejaVuSans-117"/>
      <use x="565.429688" xlink:href="#DejaVuSans-101"/>
     </g>
    </g>
   </g>
   <g id="line2d_33">
    <path clip-path="url(#pae0c07ab5b)" d="M 494.237195 36.772727 
L 508.320274 83.989305 
L 522.403353 99.231027 
L 536.486432 106.498544 
L 550.569511 114.272149 
L 564.65259 118.716604 
L 578.735669 127.554963 
L 592.818748 136.137262 
L 606.901827 141.235825 
L 620.984906 150.564044 
L 635.067985 153.147328 
L 649.151064 158.275836 
L 663.234143 162.445068 
L 677.317222 166.553287 
L 691.400301 172.77831 
L 705.48338 177.401531 
L 719.566458 179.817898 
L 733.649537 179.765427 
L 747.732616 183.815996 
L 761.815695 183.250178 
L 775.898774 184.385926 
L 789.981853 186.227186 
L 804.064932 184.644548 
L 818.148011 188.238512 
L 832.23109 191.009637 
" style="fill:none;stroke:#ff0000;stroke-linecap:square;stroke-width:1.5;"/>
   </g>
   <g id="line2d_34">
    <path clip-path="url(#pae0c07ab5b)" d="M 494.237195 157.787364 
L 508.320274 159.103907 
L 522.403353 193.59212 
L 536.486432 174.358333 
L 550.569511 179.747651 
L 564.65259 151.340924 
L 578.735669 164.58776 
L 592.818748 204.260957 
L 606.901827 193.492515 
L 620.984906 205.493375 
L 635.067985 189.595891 
L 649.151064 194.695894 
L 663.234143 214.872144 
L 677.317222 211.798093 
L 691.400301 220.187106 
L 705.48338 219.212082 
L 719.566458 226.047603 
L 733.649537 229.046817 
L 747.732616 222.162615 
L 761.815695 234.870108 
L 775.898774 223.522822 
L 789.981853 218.092722 
L 804.064932 228.117806 
L 818.148011 233.143773 
L 832.23109 236.227273 
" style="fill:none;stroke:#0000ff;stroke-linecap:square;stroke-width:1.5;"/>
   </g>
   <g id="patch_9">
    <path d="M 477.3375 246.2 
L 477.3375 26.8 
" style="fill:none;stroke:#000000;stroke-linecap:square;stroke-linejoin:miter;stroke-width:0.8;"/>
   </g>
   <g id="patch_10">
    <path d="M 849.130785 246.2 
L 849.130785 26.8 
" style="fill:none;stroke:#000000;stroke-linecap:square;stroke-linejoin:miter;stroke-width:0.8;"/>
   </g>
   <g id="patch_11">
    <path d="M 477.3375 246.2 
L 849.130785 246.2 
" style="fill:none;stroke:#000000;stroke-linecap:square;stroke-linejoin:miter;stroke-width:0.8;"/>
   </g>
   <g id="patch_12">
    <path d="M 477.3375 26.8 
L 849.130785 26.8 
" style="fill:none;stroke:#000000;stroke-linecap:square;stroke-linejoin:miter;stroke-width:0.8;"/>
   </g>
   <g id="text_34">
    <!-- Metric - MAE -->
    <defs>
     <path d="M 34.1875 63.1875 
L 20.796875 26.90625 
L 47.609375 26.90625 
z
M 28.609375 72.90625 
L 39.796875 72.90625 
L 67.578125 0 
L 57.328125 0 
L 50.6875 18.703125 
L 17.828125 18.703125 
L 11.1875 0 
L 0.78125 0 
z
" id="DejaVuSans-65"/>
    </defs>
    <g transform="translate(625.529768 20.8)scale(0.12 -0.12)">
     <use xlink:href="#DejaVuSans-77"/>
     <use x="86.279297" xlink:href="#DejaVuSans-101"/>
     <use x="147.802734" xlink:href="#DejaVuSans-116"/>
     <use x="187.011719" xlink:href="#DejaVuSans-114"/>
     <use x="228.125" xlink:href="#DejaVuSans-105"/>
     <use x="255.908203" xlink:href="#DejaVuSans-99"/>
     <use x="310.888672" xlink:href="#DejaVuSans-32"/>
     <use x="342.675781" xlink:href="#DejaVuSans-45"/>
     <use x="378.759766" xlink:href="#DejaVuSans-32"/>
     <use x="410.546875" xlink:href="#DejaVuSans-77"/>
     <use x="496.826172" xlink:href="#DejaVuSans-65"/>
     <use x="565.234375" xlink:href="#DejaVuSans-69"/>
    </g>
   </g>
   <g id="legend_2">
    <g id="patch_13">
     <path d="M 786.855785 64.15625 
L 842.130785 64.15625 
Q 844.130785 64.15625 844.130785 62.15625 
L 844.130785 33.8 
Q 844.130785 31.8 842.130785 31.8 
L 786.855785 31.8 
Q 784.855785 31.8 784.855785 33.8 
L 784.855785 62.15625 
Q 784.855785 64.15625 786.855785 64.15625 
z
" style="fill:#ffffff;opacity:0.8;stroke:#cccccc;stroke-linejoin:miter;"/>
    </g>
    <g id="line2d_35">
     <path d="M 788.855785 39.898437 
L 808.855785 39.898437 
" style="fill:none;stroke:#ff0000;stroke-linecap:square;stroke-width:1.5;"/>
    </g>
    <g id="line2d_36"/>
    <g id="text_35">
     <!-- train -->
     <g transform="translate(816.855785 43.398437)scale(0.1 -0.1)">
      <use xlink:href="#DejaVuSans-116"/>
      <use x="39.208984" xlink:href="#DejaVuSans-114"/>
      <use x="80.322266" xlink:href="#DejaVuSans-97"/>
      <use x="141.601562" xlink:href="#DejaVuSans-105"/>
      <use x="169.384766" xlink:href="#DejaVuSans-110"/>
     </g>
    </g>
    <g id="line2d_37">
     <path d="M 788.855785 54.576562 
L 808.855785 54.576562 
" style="fill:none;stroke:#0000ff;stroke-linecap:square;stroke-width:1.5;"/>
    </g>
    <g id="line2d_38"/>
    <g id="text_36">
     <!-- val -->
     <g transform="translate(816.855785 58.076562)scale(0.1 -0.1)">
      <use xlink:href="#DejaVuSans-118"/>
      <use x="59.179688" xlink:href="#DejaVuSans-97"/>
      <use x="120.458984" xlink:href="#DejaVuSans-108"/>
     </g>
    </g>
   </g>
  </g>
 </g>
 <defs>
  <clipPath id="pae0ff694f3">
   <rect height="219.4" width="371.793285" x="57.05" y="26.8"/>
  </clipPath>
  <clipPath id="pae0c07ab5b">
   <rect height="219.4" width="371.793285" x="477.3375" y="26.8"/>
  </clipPath>
 </defs>
</svg>
